<svg width="1000" height="1000" xmlns="http://www.w3.org/2000/svg">
<defs>
<mask id="border-hexagon-mask-0" maskUnits="userSpaceOnUse" x="0" y="0" width="1000" height="1000">
<polygon points="702.072594216369 616.6666666666666 500.0 733.3333333333334 297.927405783631 616.6666666666666 297.927405783631 383.3333333333333 499.99999999999994 266.66666666666663 702.072594216369 383.33333333333326" fill="white" stroke-width="400" stroke="white" stroke-linecap="round" stroke-linejoin="round"  />
<polygon points="716.0733382442174 724.75 500.0 849.5 283.92666175578256 724.75 283.92666175578256 475.25 499.99999999999994 350.5 716.0733382442174 475.2499999999999" fill="black" stroke-width="200" stroke="black" stroke-linecap="round" stroke-linejoin="round"  />
</mask>
<mask id="border-hexagon-mask-1" maskUnits="userSpaceOnUse" x="0" y="0" width="1000" height="1000">
<polygon points="702.072594216369 616.6666666666666 500.0 733.3333333333334 297.927405783631 616.6666666666666 297.927405783631 383.3333333333333 499.99999999999994 266.66666666666663 702.072594216369 383.33333333333326" fill="white" stroke-width="400" stroke="white" stroke-linecap="round" stroke-linejoin="round"  />
<polygon points="629.4707978657735 674.75 413.3974596215561 799.5 197.32412137733863 674.75 197.32412137733866 425.25 413.39745962155604 300.5 629.4707978657734 425.2499999999999" fill="black" stroke-width="200" stroke="black" stroke-linecap="round" stroke-linejoin="round"  />
</mask>
<mask id="border-hexagon-mask-2" maskUnits="userSpaceOnUse" x="0" y="0" width="1000" height="1000">
<polygon points="702.072594216369 616.6666666666666 500.0 733.3333333333334 297.927405783631 616.6666666666666 297.927405783631 383.3333333333333 499.99999999999994 266.66666666666663 702.072594216369 383.33333333333326" fill="white" stroke-width="400" stroke="white" stroke-linecap="round" stroke-linejoin="round"  />
<polygon points="629.4707978657736 574.75 413.39745962155615 699.5 197.32412137733868 574.75 197.3241213773387 325.25 413.3974596215561 200.5 629.4707978657735 325.2499999999999" fill="black" stroke-width="200" stroke="black" stroke-linecap="round" stroke-linejoin="round"  />
</mask>
<mask id="border-hexagon-mask-3" maskUnits="userSpaceOnUse" x="0" y="0" width="1000" height="1000">
<polygon points="702.072594216369 616.6666666666666 500.0 733.3333333333334 297.927405783631 616.6666666666666 297.927405783631 383.3333333333333 499.99999999999994 266.66666666666663 702.072594216369 383.33333333333326" fill="white" stroke-width="400" stroke="white" stroke-linecap="round" stroke-linejoin="round"  />
<polygon points="716.0733382442174 524.75 500.0 649.5 283.92666175578256 524.75 283.92666175578256 275.25 499.99999999999994 150.5 716.0733382442174 275.2499999999999" fill="black" stroke-width="200" stroke="black" stroke-linecap="round" stroke-linejoin="round"  />
</mask>
<mask id="border-hexagon-mask-4" maskUnits="userSpaceOnUse" x="0" y="0" width="1000" height="1000">
<polygon points="702.072594216369 616.6666666666666 500.0 733.3333333333334 297.927405783631 616.6666666666666 297.927405783631 383.3333333333333 499.99999999999994 266.66666666666663 702.072594216369 383.33333333333326" fill="white" stroke-width="400" stroke="white" stroke-linecap="round" stroke-linejoin="round"  />
<polygon points="802.6758786226612 574.7499999999999 586.6025403784438 699.5 370.52920213422635 574.7499999999999 370.52920213422635 325.2499999999999 586.6025403784438 200.49999999999994 802.6758786226612 325.24999999999983" fill="black" stroke-width="200" stroke="black" stroke-linecap="round" stroke-linejoin="round"  />
</mask>
<mask id="border-hexagon-mask-5" maskUnits="userSpaceOnUse" x="0" y="0" width="1000" height="1000">
<polygon points="702.072594216369 616.6666666666666 500.0 733.3333333333334 297.927405783631 616.6666666666666 297.927405783631 383.3333333333333 499.99999999999994 266.66666666666663 702.072594216369 383.33333333333326" fill="white" stroke-width="400" stroke="white" stroke-linecap="round" stroke-linejoin="round"  />
<polygon points="802.6758786226613 674.75 586.6025403784439 799.5 370.52920213422647 674.75 370.52920213422647 425.25 586.6025403784439 300.5 802.6758786226612 425.2499999999999" fill="black" stroke-width="200" stroke="black" stroke-linecap="round" stroke-linejoin="round"  />
</mask>
<mask id="center_hexagon_mask" maskUnits="userSpaceOnUse" x="0" y="0" width="1000" height="1000">
<rect x="0" y="0" width="1000" height="1000" fill="black" />
<polygon points="673.2050807568878 600.0 500.0 700.0 326.79491924311225 600.0 326.7949192431123 400.0 499.99999999999994 300.0 673.2050807568877 399.9999999999999" fill="white" stroke-width="100" stroke="white" stroke-linecap="round" stroke-linejoin="round"  />
</mask>
</defs>
<polygon points="803.1088913245536 675.0 586.6025403784439 800.0 370.0961894323342 675.0 370.09618943233426 425.0 586.6025403784439 300.0 803.1088913245535 424.9999999999999" fill="hsl(270, 100%, 25%)" stroke-width="200" stroke="hsl(270, 100%, 25%)" stroke-linecap="round" stroke-linejoin="round" mask="url(#border-hexagon-mask-0)" />
<polygon points="716.5063509461097 725.0 500.0 850.0 283.4936490538903 725.0 283.49364905389035 475.0 499.99999999999994 350.0 716.5063509461096 474.9999999999999" fill="hsl(270, 90%, 35%)" stroke-width="200" stroke="hsl(270, 90%, 35%)" stroke-linecap="round" stroke-linejoin="round" mask="url(#border-hexagon-mask-1)" />
<polygon points="629.9038105676658 675.0 413.3974596215561 800.0 196.89110867544642 675.0 196.89110867544645 425.0 413.39745962155604 300.0 629.9038105676657 424.9999999999999" fill="hsl(270, 80%, 45%)" stroke-width="200" stroke="hsl(270, 80%, 45%)" stroke-linecap="round" stroke-linejoin="round" mask="url(#border-hexagon-mask-2)" />
<polygon points="629.9038105676658 575.0 413.39745962155615 700.0 196.89110867544647 575.0 196.8911086754465 325.0 413.3974596215561 200.0 629.9038105676657 324.9999999999999" fill="hsl(270, 80%, 65%)" stroke-width="200" stroke="hsl(270, 80%, 65%)" stroke-linecap="round" stroke-linejoin="round" mask="url(#border-hexagon-mask-3)" />
<polygon points="716.5063509461097 525.0 500.0 650.0 283.4936490538903 525.0 283.49364905389035 275.0 499.99999999999994 150.0 716.5063509461096 274.9999999999999" fill="hsl(270, 90%, 55%)" stroke-width="200" stroke="hsl(270, 90%, 55%)" stroke-linecap="round" stroke-linejoin="round" mask="url(#border-hexagon-mask-4)" />
<polygon points="803.1088913245535 574.9999999999999 586.6025403784438 700.0 370.0961894323341 574.9999999999999 370.09618943233414 324.9999999999999 586.6025403784438 199.99999999999994 803.1088913245534 324.99999999999983" fill="hsl(270, 100%, 45%)" stroke-width="200" stroke="hsl(270, 100%, 45%)" stroke-linecap="round" stroke-linejoin="round" mask="url(#border-hexagon-mask-5)" />
<polygon points="716.5063509461097 625.0 500.0 750.0 283.4936490538903 625.0 283.49364905389035 375.0 499.99999999999994 250.0 716.5063509461096 374.9999999999999" fill="hsl(270, 50%, 20%)" stroke-width="200" stroke="hsl(270, 50%, 20%)" stroke-linecap="round" stroke-linejoin="round"  />
<polygon points="1366.4584164863309 1000.25 933.0127018922194 1250.5 499.56698729810785 1000.25 499.5669872981079 499.74999999999994 933.0127018922193 249.5 1366.4584164863309 499.7499999999998" fill="hsl(270, 50%, 75%)" stroke-width="0" stroke="hsl(270, 50%, 75%)" stroke-linecap="round" stroke-linejoin="round" mask="url(#center_hexagon_mask)" />
<polygon points="500.4330127018922 1000.25 66.98729810778067 1250.5 -366.4584164863309 1000.25 -366.45841648633086 499.74999999999994 66.98729810778056 249.5 500.43301270189204 499.7499999999998" fill="hsl(270, 50%, 80%)" stroke-width="0" stroke="hsl(270, 50%, 80%)" stroke-linecap="round" stroke-linejoin="round" mask="url(#center_hexagon_mask)" />
<polygon points="933.4457145941115 250.24999999999997 499.99999999999994 500.5 66.55428540588832 250.24999999999997 66.55428540588838 -250.25000000000006 499.9999999999998 -500.5 933.4457145941112 -250.25000000000023" fill="hsl(270, 50%, 85%)" stroke-width="0" stroke="hsl(270, 50%, 85%)" stroke-linecap="round" stroke-linejoin="round" mask="url(#center_hexagon_mask)" />
</svg>
